<svg width="50" height="50" viewBox="0 0 50 50" fill="none" xmlns="http://www.w3.org/2000/svg">
<path d="M39.4782 14.2857C30.7857 8.95964 32.681 10.1929 17.3623 12.383C14.9791 7.85584 15.834 1.64801 20.4422 0.387404C25.0503 -0.873203 25.8622 1.15229 23.695 3.44889C32.8182 -0.138757 37.4224 -0.650737 44.2961 2.36836C48.7917 5.31085 45.7014 8.1303 39.4782 14.2857Z" fill="black"/>
<path d="M14.0165 16.7133C11.1605 14.1687 11.5704 12.8842 14.0165 10.7143L0 12.5322C6.36898 13.785 9.55245 14.6519 14.0165 16.7133Z" fill="black"/>
<path d="M6.58979 23.5023C9.87006 21.3775 11.8632 20.4895 13.3581 17.8571C16.1646 23.2812 16.9903 25.8917 11.9842 28.7029C5.99882 29.9005 1.6432 26.4674 6.58979 23.5023Z" fill="black"/>
<path d="M18.749 26.0405C22.7728 23.1587 24.5527 21.412 26.1299 17.8571C25.8638 22.5815 24.0756 25.0772 19.6716 29.4151C19.3726 31.133 19.8308 32.1063 23.3621 33.8864C26.8665 35.9455 28.4397 36.5515 33.5108 40.8043C31.3369 37.9589 30.241 36.3911 25.0535 32.874C23.2211 30.7619 20.0979 29.7841 25.0535 25.0281C25.2246 29.2266 25.8017 31.1509 29.9742 31.7773C29.8638 30.0362 30.6419 23.5022 32.1269 21.991C33.9535 15.9904 58.729 23.5096 46.735 23.6783C34.741 23.847 50.4272 33.3001 43.5058 36.5861C44.6941 35.695 45.3332 32.1812 41.8144 32.3678C37.3616 32.4427 38.1659 32.0928 35.6636 33.8864V48.3368C35.697 48.8581 35.6923 49.4075 35.6636 50V48.3368C35.4975 45.7412 34.3872 43.8434 30.5892 40.8043C28.2515 37.3021 24.6384 36.1448 18.749 33.8864C15.7116 31.3073 14.683 29.7537 18.749 26.0405Z" fill="black"/>
</svg>
